<svg xmlns="http://www.w3.org/2000/svg" viewBox="0 0 255 255" xml:space="preserve" stroke="currentColor" fill="currentColor">
    <g stroke="none" stroke-width="0" stroke-miterlimit="10">
        <path d="M253.279 169.116a2.818 2.818 0 0 0-3.327-.174c-46.405 30.528-108.638 24.135-147.978-15.202-39.337-39.337-45.73-101.57-15.2-147.975a2.81 2.81 0 0 0-3.4-4.15A130.314 130.314 0 0 0 39.756 30.51c-51.128 51.128-51.128 134.324 0 185.452 25.563 25.562 59.145 38.345 92.724 38.345 33.583 0 67.162-12.783 92.728-38.345a130.362 130.362 0 0 0 28.898-43.62 2.816 2.816 0 0 0-.826-3.226z"/>
        <path d="M218.49 114.285a46.506 46.506 0 0 1-29.28-29.278 5.387 5.387 0 0 0-5.173-3.748c-2.383 0-4.414 1.472-5.17 3.751a46.508 46.508 0 0 1-29.277 29.275 5.387 5.387 0 0 0-3.749 5.173c0 2.383 1.472 4.414 3.749 5.173a46.489 46.489 0 0 1 29.274 29.278h.003c.759 2.278 2.787 3.748 5.17 3.748 2.386 0 4.418-1.472 5.174-3.748a46.514 46.514 0 0 1 29.277-29.278 5.384 5.384 0 0 0 3.751-5.173c0-2.386-1.472-4.417-3.748-5.173zm12.311-80.347a24.68 24.68 0 0 1-15.539-15.536 4.28 4.28 0 0 0-8.132.003 24.658 24.658 0 0 1-15.531 15.533 4.28 4.28 0 0 0-.003 8.127A24.683 24.683 0 0 1 207.133 57.6a4.285 4.285 0 0 0 4.06 2.942h.006a4.285 4.285 0 0 0 4.063-2.939 24.68 24.68 0 0 1 15.54-15.536 4.288 4.288 0 0 0 2.939-4.064 4.288 4.288 0 0 0-2.94-4.066zm-82.504 19.985a30.708 30.708 0 0 1-19.338-19.336 4.603 4.603 0 0 0-8.745 0 30.71 30.71 0 0 1-19.336 19.336 4.603 4.603 0 0 0 0 8.745 30.708 30.708 0 0 1 19.336 19.338 4.603 4.603 0 0 0 8.745 0 30.713 30.713 0 0 1 19.335-19.338 4.608 4.608 0 0 0 .003-8.745z"/>
    </g>
</svg>
