<svg xmlns="http://www.w3.org/2000/svg" 
    viewBox="0 0 255 255"
    stroke="currentColor" fill="currentColor"
    xml:space="preserve">
    <g stroke-width="0" stroke-miterlimit="10">
        <path d="M127.857 192.487c-35.637 0-64.63-28.991-64.63-64.63 0-35.637 28.993-64.63 64.63-64.63 35.639 0 64.63 28.993 64.63 64.63 0 35.639-28.991 64.63-64.63 64.63zM127.857 50.739a8.43 8.43 0 0 1-8.43-8.43V9.837a8.43 8.43 0 0 1 8.43-8.43 8.43 8.43 0 0 1 8.43 8.43v32.472a8.431 8.431 0 0 1-8.43 8.43zM127.857 254.307a8.43 8.43 0 0 1-8.43-8.43v-32.473a8.43 8.43 0 0 1 8.43-8.43 8.43 8.43 0 0 1 8.43 8.43v32.473a8.43 8.43 0 0 1-8.43 8.43zM42.309 136.287H9.837a8.43 8.43 0 0 1-8.43-8.43 8.43 8.43 0 0 1 8.43-8.43h32.472a8.43 8.43 0 0 1 8.43 8.43 8.431 8.431 0 0 1-8.43 8.43zM245.877 136.287h-32.473a8.43 8.43 0 0 1-8.43-8.43 8.43 8.43 0 0 1 8.43-8.43h32.473a8.43 8.43 0 0 1 8.43 8.43 8.43 8.43 0 0 1-8.43 8.43zM188.347 75.796a8.429 8.429 0 0 1-5.96-14.39l22.961-22.96a8.428 8.428 0 0 1 11.92 0 8.429 8.429 0 0 1 0 11.922l-22.96 22.96a8.404 8.404 0 0 1-5.96 2.468zM44.405 219.738a8.395 8.395 0 0 1-5.96-2.47 8.426 8.426 0 0 1 0-11.92l22.96-22.96a8.426 8.426 0 0 1 11.92 0 8.426 8.426 0 0 1 0 11.92l-22.96 22.96a8.405 8.405 0 0 1-5.96 2.47zM67.366 75.796a8.404 8.404 0 0 1-5.96-2.467l-22.96-22.961a8.432 8.432 0 0 1 11.923-11.923l22.96 22.96a8.429 8.429 0 0 1-5.963 14.39zM211.308 219.738a8.4 8.4 0 0 1-5.96-2.47l-22.96-22.96a8.426 8.426 0 0 1 0-11.92 8.426 8.426 0 0 1 11.92 0l22.96 22.96a8.426 8.426 0 0 1 0 11.92 8.4 8.4 0 0 1-5.96 2.47z"/>
    </g>
</svg>