<svg xmlns="http://www.w3.org/2000/svg" 
    viewBox="0 0 255 255"
    stroke="currentColor" fill="currentColor"
    xml:space="preserve">
    <g transform="matrix(2.81 0 0 2.81 1.407 1.407)" 
        stroke-width="0" stroke-miterlimit="10">
        <path d="M90 56.176H0V9.247a5.426 5.426 0 0 1 5.42-5.42h79.16A5.426 5.426 0 0 1 90 9.247v46.929zm-88-2h86V9.247a3.424 3.424 0 0 0-3.42-3.42H5.42A3.424 3.424 0 0 0 2 9.247v44.929z"/><path d="M83.79 50.966H6.21a1 1 0 0 1-1-1v-37.64a3.293 3.293 0 0 1 3.289-3.289h73.002a3.293 3.293 0 0 1 3.289 3.289v37.64a1 1 0 0 1-1 1zm-76.58-2h75.58v-36.64a1.29 1.29 0 0 0-1.289-1.289H8.499a1.29 1.29 0 0 0-1.289 1.289v36.64zM84.58 68.6H5.42A5.426 5.426 0 0 1 0 63.18v-9.004h90v9.004a5.427 5.427 0 0 1-5.42 5.42zM2 56.176v7.004a3.424 3.424 0 0 0 3.42 3.42h79.16A3.424 3.424 0 0 0 88 63.18v-7.004H2z"/><circle cx="45" cy="61.39" r="1.5"/><path d="M58.825 80.963h-27.65a1 1 0 0 1-.592-1.805c3.798-2.789 6.333-7.05 6.955-11.69a1 1 0 0 1 .991-.867h12.94c.501 0 .925.37.991.867.622 4.641 3.158 8.901 6.956 11.69a.998.998 0 0 1-.591 1.805zm-24.938-2h22.227A19.499 19.499 0 0 1 50.616 68.6H39.384a19.49 19.49 0 0 1-5.497 10.363z"/><path d="M61.054 86.174H28.946c-1.988 0-3.605-1.617-3.605-3.605s1.617-3.605 3.605-3.605h32.108c1.988 0 3.605 1.617 3.605 3.605s-1.617 3.605-3.605 3.605zm-32.108-5.211c-.885 0-1.605.72-1.605 1.605s.72 1.605 1.605 1.605h32.108a1.606 1.606 0 0 0 0-3.21H28.946z"/>
    </g>
</svg>